<svg version="1.1" id="Layer_1" xmlns="http://www.w3.org/2000/svg" xmlns:xlink="http://www.w3.org/1999/xlink" x="0px" y="0px"
	 width="100%" viewBox="0 0 1024 1024" enable-background="new 0 0 1024 1024" xml:space="preserve">
<path fill="#000000" opacity="1.000000" stroke="none" 
	d="
M136.927612,705.983032 
	C115.830894,666.291992 101.090492,624.770203 92.921120,580.904785 
	C86.639389,547.174988 85.178871,513.098694 86.965889,479.010742 
	C90.300575,415.400818 107.784187,355.574646 138.603867,299.834229 
	C165.774628,250.693253 201.484528,208.642883 245.676529,173.900925 
	C289.407623,139.521317 337.957947,114.492111 391.443176,99.137596 
	C413.831909,92.710251 436.613617,88.359756 459.754578,85.441216 
	C485.138702,82.239777 510.599823,81.799690 536.006287,82.932823 
	C573.145386,84.589241 609.597473,91.065964 645.144409,102.250633 
	C742.293579,132.818100 818.077332,191.515274 873.506042,276.562714 
	C903.194458,322.115295 922.730835,371.898254 932.497681,425.473083 
	C936.406982,446.917023 938.699768,468.472961 939.447021,490.275421 
	C943.008850,594.202393 911.644287,686.785217 847.723816,768.123108 
	C787.293579,845.019653 708.675537,894.585083 613.829834,918.356323 
	C589.768311,924.386902 565.323364,927.867004 540.543335,929.454590 
	C455.806671,934.883362 376.629303,916.171692 302.781555,874.734314 
	C233.532562,835.877502 179.938950,781.189514 140.569427,712.383850 
	C139.411194,710.359619 138.258224,708.332397 136.927612,705.983032 
M768.520203,828.000916 
	C809.894470,795.498596 843.526794,756.295776 870.167664,710.972595 
	C906.999573,648.311584 925.334290,580.479736 926.502136,508.014099 
	C926.931152,481.392914 924.364197,454.865631 919.406616,428.673828 
	C910.182373,379.940125 892.817871,334.269562 866.743896,292.023956 
	C833.854004,238.735123 791.512146,194.567673 738.583801,160.904190 
	C685.361206,127.053513 627.304626,106.734039 564.644714,99.130493 
	C534.411804,95.461845 504.165100,95.146309 473.956879,97.607864 
	C446.105560,99.877365 418.688507,105.238159 391.843048,113.280724 
	C322.322174,134.108292 262.520569,170.932922 212.271240,223.098114 
	C174.599426,262.206268 146.244843,307.409576 126.576035,358.058868 
	C111.716347,396.324127 103.222855,436.048889 100.577324,476.885376 
	C99.288551,496.778809 99.553017,516.800415 101.133385,536.788635 
	C102.839073,558.361633 106.036949,579.630737 111.087494,600.646423 
	C126.806717,666.054993 157.335739,723.827209 201.392334,774.456604 
	C247.375076,827.299438 303.622498,865.525879 368.940979,890.523926 
	C409.013092,905.859863 450.637054,914.216064 493.382233,916.459900 
	C513.135254,917.496826 532.961243,916.879883 552.738159,914.846008 
	C572.274658,912.836792 591.631042,909.871704 610.656433,905.180115 
	C668.565247,890.900085 720.978638,865.195923 768.520203,828.000916 
z"/>
<path fill="#000000" opacity="1.000000" stroke="none" 
	d="
M788.225830,503.893066 
	C786.795959,508.418243 783.341980,508.303314 779.969849,508.304535 
	C759.815002,508.311859 739.660095,508.306610 719.505249,508.306610 
	C673.199036,508.306671 626.892883,508.307404 580.586670,508.307465 
	C579.254150,508.307465 577.921448,508.290405 576.589050,508.304443 
	C573.450439,508.337524 570.848572,507.606689 570.708862,503.807373 
	C570.554626,499.613281 573.486206,498.949707 576.712952,498.887909 
	C581.208801,498.801758 585.716431,498.668488 590.201843,498.895325 
	C594.288391,499.101990 595.432495,497.480957 595.801270,493.427094 
	C597.439148,475.421967 599.640259,457.468872 601.399353,439.473633 
	C602.159668,431.696411 602.777893,423.925385 605.162598,416.437561 
	C611.488220,396.575409 624.671936,384.407715 645.375305,380.690613 
	C652.764832,379.363861 660.185730,378.744263 667.704651,379.011566 
	C703.503235,380.284424 739.316284,379.330017 775.121643,379.633209 
	C776.787170,379.647308 778.452698,379.656464 780.118164,379.679535 
	C782.160950,379.707886 783.733215,380.499115 784.177307,382.626099 
	C784.624756,384.769012 784.147888,386.968842 781.989197,387.662750 
	C778.747742,388.704712 778.285095,390.793274 778.291443,393.755310 
	C778.362732,427.068970 778.376953,460.382935 778.283752,493.696503 
	C778.274109,497.147034 779.018127,499.017822 782.906372,498.963196 
	C785.704956,498.923859 788.281006,499.834015 788.225830,503.893066 
M738.342590,444.713501 
	C737.844299,462.483521 737.346008,480.253571 736.823975,498.869232 
	C746.109192,498.869232 755.048523,498.714294 763.978516,498.935638 
	C768.343811,499.043854 769.736328,497.415924 769.718384,493.088989 
	C769.581116,460.095184 769.555481,427.100128 769.733643,394.106750 
	C769.759338,389.349274 768.063721,388.217224 763.619629,388.235016 
	C727.459717,388.379730 691.298889,388.278229 655.138550,388.343414 
	C637.792358,388.374695 622.481018,398.923889 615.653870,414.922760 
	C609.765320,428.722198 610.396057,443.566681 608.447266,457.979248 
	C606.846741,469.816193 606.473389,481.819214 604.867004,493.655121 
	C604.254639,498.166931 605.670227,498.864685 609.406311,498.797394 
	C615.902893,498.680359 622.424744,498.463379 628.895020,498.898041 
	C633.527222,499.209198 635.363708,497.212891 635.516357,493.075226 
	C635.927124,481.938995 637.378235,470.902618 638.714050,459.863159 
	C640.370972,446.169708 642.419617,432.531647 647.762817,419.652435 
	C654.173889,404.199097 669.065674,393.034393 686.159607,393.528595 
	C704.141479,394.048431 722.150269,393.614685 740.146912,393.684326 
	C741.975525,393.691406 744.141479,392.863312 745.356140,394.480743 
	C738.403259,410.503662 740.499512,427.446655 738.342590,444.713501 
M673.376526,423.431091 
	C673.437317,422.372131 674.248657,421.200500 672.958191,420.312775 
	C664.231445,427.894318 654.017029,490.784393 660.429932,497.984619 
	C662.081482,497.111053 662.493164,495.605652 662.670837,493.882141 
	C663.640198,484.474976 664.703247,475.077271 665.635315,465.666504 
	C667.027710,451.608765 668.630737,437.595398 673.376526,423.431091 
M722.610718,446.210846 
	C722.859009,436.939880 725.294067,427.930328 726.238098,418.742523 
	C717.899170,434.470856 711.734314,491.136658 718.120544,497.465210 
	C718.667053,491.333832 719.194641,485.814087 719.644104,480.287994 
	C720.543884,469.225189 720.861145,458.111786 722.610718,446.210846 
M691.598938,483.157349 
	C692.698669,462.081268 695.673096,441.249054 700.072449,420.602142 
	C691.875977,432.511475 683.825989,489.119568 689.302368,497.238525 
	C691.780579,492.881714 690.108459,488.156372 691.598938,483.157349 
z"/>
<path fill="#000000" opacity="1.000000" stroke="none" 
	d="
M434.446869,632.336060 
	C419.062531,588.559814 443.288574,545.396667 488.702698,536.117920 
	C525.101013,528.681091 565.658142,548.263733 575.838501,589.235229 
	C585.944824,629.908630 559.327820,671.378479 517.983154,678.386902 
	C481.057312,684.646301 447.099579,666.049011 434.446869,632.336060 
M461.363190,609.235718 
	C461.703033,611.532471 461.993256,613.837830 462.390289,616.124634 
	C466.960876,642.450684 497.447418,658.536682 521.226379,647.180237 
	C541.934265,637.290527 551.946899,612.127808 543.065552,590.995728 
	C535.255005,572.411560 519.974426,563.252686 503.124786,563.816162 
	C478.571625,564.637268 461.437622,583.489685 461.363190,609.235718 
z"/>
<path fill="#000000" opacity="1.000000" stroke="none" 
	d="
M303.657043,573.999878 
	C303.658112,563.171692 303.776062,552.841431 303.598694,542.516357 
	C303.535675,538.847839 304.782898,537.583557 308.478607,537.605835 
	C329.967102,537.735535 351.461426,537.393433 372.944824,537.749756 
	C399.764435,538.194702 419.353821,561.908569 415.676727,588.230347 
	C413.381256,604.662231 405.074585,616.577759 391.020935,624.874207 
	C389.909302,625.530457 388.529999,625.888794 387.663391,627.708557 
	C398.156525,643.614685 408.799011,659.747192 420.266571,677.130432 
	C411.818176,677.130432 404.814636,676.421570 398.016113,677.299744 
	C388.269562,678.558716 382.510986,675.021729 377.805817,666.411316 
	C371.675781,655.193359 363.927551,644.866455 357.050385,634.045044 
	C355.321014,631.323914 353.296906,630.106201 350.107758,630.280762 
	C346.786255,630.462524 343.431641,630.512146 340.118744,630.260803 
	C335.846252,629.936829 334.126953,631.425659 334.333160,635.921997 
	C334.897308,648.223450 334.938568,660.541077 334.402161,672.851929 
	C334.352234,673.997864 334.252594,675.141663 334.128479,676.997620 
	C324.768311,676.997620 315.518677,677.079285 306.271973,676.949768 
	C303.363495,676.908997 303.683594,674.412598 303.676178,672.451660 
	C303.644623,664.122559 303.658966,655.793335 303.658630,647.464111 
	C303.657715,623.142700 303.657776,598.821350 303.657043,573.999878 
M356.440674,603.623962 
	C360.420746,603.531494 364.365601,603.667480 368.352081,602.819275 
	C379.167389,600.517822 385.553589,592.674683 384.629456,582.291382 
	C383.804962,573.027710 375.507843,565.581055 365.431458,565.375854 
	C356.773804,565.199463 348.108459,565.420898 339.449249,565.288574 
	C335.936371,565.234924 334.266327,566.333374 334.335846,570.146362 
	C334.508850,579.637329 334.506989,589.135315 334.344177,598.626587 
	C334.279175,602.415894 336.029541,603.658386 339.468201,603.622925 
	C344.797577,603.567993 350.127991,603.617188 356.440674,603.623962 
z"/>
<path fill="#000000" opacity="1.000000" stroke="none" 
	d="
M634.714722,541.548462 
	C661.749207,530.635193 687.109497,532.352905 710.498230,549.926941 
	C719.588440,556.757202 719.358032,557.068909 711.741333,565.544983 
	C708.401794,569.261353 704.914246,572.855652 701.753967,576.718140 
	C699.708618,579.217896 698.267639,579.553467 695.800659,577.103699 
	C683.726318,565.113281 669.361511,560.369385 652.943481,565.876709 
	C636.127747,571.517517 627.504333,584.563965 624.541687,601.448914 
	C621.550476,618.495972 630.794800,637.092102 645.857910,645.544128 
	C661.600220,654.377319 679.892761,652.336548 694.180176,640.153442 
	C699.713074,635.435486 699.706116,635.442505 704.901245,640.667358 
	C708.072449,643.856628 711.093018,647.227295 714.505371,650.136169 
	C717.756897,652.907898 717.273438,655.164978 714.709290,658.004822 
	C705.481567,668.224792 694.177246,674.958374 680.761414,677.788330 
	C645.792786,685.164612 613.067993,669.367920 599.018860,637.543823 
	C583.096619,601.476929 597.409973,558.808594 634.714722,541.548462 
z"/>
<path fill="#000000" opacity="1.000000" stroke="none" 
	d="
M401.643066,270.005188 
	C401.648773,266.173615 401.767670,262.836243 401.627747,259.509705 
	C401.488403,256.196045 402.785095,254.813339 406.204651,254.494781 
	C415.673279,253.612671 415.861847,253.468887 415.734863,243.860626 
	C415.669952,238.950363 417.664429,237.540466 422.309540,237.611694 
	C432.768433,237.772095 431.954773,239.018723 431.895203,228.055939 
	C431.858063,221.224365 432.044556,214.389511 431.892487,207.561432 
	C431.807220,203.733109 433.399963,201.979797 437.166199,202.044769 
	C438.498383,202.067764 439.836823,201.933914 441.163727,202.014633 
	C444.536407,202.219818 446.011536,200.797318 445.895386,197.321823 
	C445.695099,191.328323 445.735840,185.326431 445.700714,179.327911 
	C445.685089,176.656418 445.264069,173.859467 449.418274,173.722214 
	C453.578247,173.584747 453.352631,176.257477 453.350342,179.015213 
	C453.345154,185.347153 453.547089,191.685120 453.324890,198.008698 
	C453.201324,201.525085 454.292358,203.427170 457.760284,204.650940 
	C464.976654,207.197464 471.958405,210.405930 479.162903,212.990250 
	C482.975769,214.357986 484.730927,216.271652 484.448242,220.579330 
	C484.045410,226.718185 484.584961,232.915695 484.264893,239.064346 
	C484.059174,243.016296 485.352631,245.089722 489.130585,246.480682 
	C497.302704,249.489487 497.559143,249.696152 497.120361,258.439362 
	C496.866058,263.507874 498.608704,266.263336 503.372375,267.459015 
	C506.945526,268.355896 508.299896,270.614746 508.292572,274.407715 
	C508.205444,319.564789 508.256073,364.722137 508.251068,409.879395 
	C508.250946,410.999695 508.026825,412.119965 507.900665,413.301086 
	C502.092346,411.147186 499.645111,407.911285 499.643158,402.427338 
	C499.628601,362.102356 499.544678,321.776978 499.741791,281.452972 
	C499.765259,276.653046 498.219543,274.098206 493.823334,272.539215 
	C488.872437,270.783539 484.088348,268.557404 478.178040,266.097351 
	C478.178040,306.940979 478.178040,346.780548 478.178040,386.834137 
	C471.752716,385.085052 469.587341,382.494781 469.586426,377.040741 
	C469.580322,341.048218 469.605896,305.055695 469.608978,269.063171 
	C469.609222,266.251373 470.133453,263.369812 465.592377,263.264709 
	C460.954132,263.157379 461.044556,265.838745 461.048950,269.066742 
	C461.092590,300.893433 461.085388,332.720184 461.092438,364.546936 
	C461.093018,367.190002 461.092499,369.833099 461.092499,372.535980 
	C454.970398,371.823212 452.643280,369.366699 452.644562,364.206848 
	C452.652466,332.546722 452.664978,300.886566 452.621338,269.226501 
	C452.617920,266.752045 453.555908,263.667999 449.274078,263.309540 
	C445.168640,262.965820 443.207855,263.924500 443.401245,268.668427 
	C444.582642,297.644440 443.637543,326.641724 443.985901,355.628601 
	C444.009552,357.596405 444.237976,359.621429 443.330566,361.491089 
	C437.289581,361.022369 435.550079,359.687317 435.490814,353.980774 
	C435.232819,329.158966 435.187561,304.334930 435.069275,279.511688 
	C435.052612,276.012482 435.063171,272.513153 435.053833,269.013885 
	C435.046173,266.133026 435.390137,263.231110 430.918335,263.303894 
	C426.645935,263.373444 427.188293,266.235809 427.185883,268.841309 
	C427.161682,294.835907 427.178162,320.830475 427.151550,346.825043 
	C427.149567,348.774445 427.625275,350.825684 426.394379,352.615723 
	C419.815033,352.188660 418.662109,351.014832 418.658966,344.602966 
	C418.646545,319.441498 418.671753,294.279999 418.615936,269.118622 
	C418.610870,266.824310 419.569244,263.888214 415.654022,263.366943 
	C411.473816,262.810364 410.162323,264.449310 410.190247,268.615601 
	C410.348938,292.276367 410.274506,315.938660 410.279236,339.600433 
	C410.279633,341.568573 410.279297,343.536743 410.279297,345.435791 
	C403.371002,346.106018 401.635956,344.614563 401.634766,338.486298 
	C401.630310,315.825592 401.639008,293.164856 401.643066,270.005188 
M476.656036,226.815643 
	C476.545074,224.399399 477.283386,221.656250 474.149994,220.417130 
	C468.619110,218.229889 463.091949,216.033203 456.944031,213.594910 
	C456.944031,218.402435 456.904022,222.508820 456.957367,226.614014 
	C456.996246,229.606049 456.569885,232.773590 457.404297,235.545853 
	C458.635864,239.637756 462.920593,237.113403 465.691589,238.293594 
	C468.884949,239.653717 472.243256,241.461487 476.656006,240.717484 
	C476.656006,236.305466 476.656006,232.017746 476.656036,226.815643 
M436.536255,246.377151 
	C433.389465,246.405777 430.238312,246.342300 427.097137,246.490112 
	C424.217987,246.625610 424.466461,248.881882 424.359375,250.883560 
	C424.239929,253.116150 425.001740,254.211823 427.462616,254.218811 
	C436.733032,254.245178 446.003479,254.395050 455.272827,254.559540 
	C457.891937,254.606018 459.767120,254.282791 459.686829,250.867783 
	C459.614990,247.811005 458.759277,246.254150 455.413635,246.337906 
	C449.453827,246.487106 443.487579,246.378448 436.536255,246.377151 
M440.328949,222.535950 
	C440.330475,226.184402 440.424438,229.835922 440.303955,233.480347 
	C440.209473,236.337509 441.131561,237.740204 444.263550,237.735779 
	C447.453033,237.731277 448.755371,236.550217 448.682434,233.329620 
	C448.547272,227.362518 448.445068,221.380936 448.717072,215.423080 
	C448.904663,211.314621 446.518097,210.820282 443.438843,210.672623 
	C440.017212,210.508545 440.400391,212.960098 440.352570,215.090042 
	C440.304230,217.244949 440.334290,219.401642 440.328949,222.535950 
M481.919830,258.419891 
	C483.910034,259.047363 485.611206,260.692474 487.996582,260.202698 
	C488.912567,258.195465 489.369202,255.996078 487.066437,255.009842 
	C481.231018,252.510529 475.237366,250.380539 469.132233,248.035492 
	C468.179535,252.342758 468.517548,254.526047 472.905426,254.948486 
	C475.757812,255.223114 478.467285,256.982239 481.919830,258.419891 
z"/>
<path fill="#000000" opacity="1.000000" stroke="none" 
	d="
M377.499634,722.456482 
	C349.811737,717.364441 332.580109,736.961121 328.913208,756.495483 
	C324.147278,781.884766 341.581329,806.126648 368.505676,806.519958 
	C379.121185,806.675110 388.812775,802.803894 396.873962,795.786682 
	C400.752869,792.410095 403.501007,792.595032 406.788361,796.413330 
	C409.822510,799.937622 413.186066,803.228210 416.711761,806.265076 
	C420.093689,809.178162 420.280823,811.272644 416.969208,814.657959 
	C392.910553,839.251709 352.428284,842.382080 324.219360,821.291321 
	C306.316711,807.906189 297.571136,789.877747 296.497192,767.387695 
	C294.809357,732.041199 320.633881,699.980225 355.739960,694.205566 
	C379.341980,690.323181 400.642944,695.601501 418.602356,712.173401 
	C421.119720,714.496216 421.293427,716.171692 418.897522,718.708008 
	C413.201904,724.737488 407.748260,730.995544 401.780670,737.623413 
	C394.945465,730.352173 387.456726,724.718750 377.499634,722.456482 
z"/>
<path fill="#000000" opacity="1.000000" stroke="none" 
	d="
M303.378540,459.087158 
	C321.461395,456.253784 339.242737,455.519745 357.027588,456.751740 
	C392.667755,459.220581 425.967133,469.186584 456.027618,488.948914 
	C456.412506,489.201935 456.639313,489.695374 457.357452,490.606171 
	C451.273865,491.799622 445.926971,493.227020 440.102509,489.891083 
	C425.026154,481.256042 409.163269,474.484406 392.050079,470.806885 
	C337.689209,459.124969 285.621979,465.404419 235.887100,490.405090 
	C234.410767,491.147247 232.842209,491.785278 231.860870,493.258759 
	C229.920517,496.172058 230.977966,498.775055 234.448700,498.745697 
	C237.740524,498.717865 241.069229,498.139038 244.305176,497.445404 
	C250.985336,496.013580 257.532745,496.224060 263.937500,498.590363 
	C269.310669,500.575500 274.669464,500.519989 280.075317,498.910156 
	C290.522156,495.799133 300.887939,494.844482 311.273071,499.343353 
	C315.949005,501.368958 320.682495,500.643951 325.328796,498.714081 
	C333.548553,495.300018 341.963898,495.429260 350.164307,498.456848 
	C356.732117,500.881683 363.031616,501.247864 369.606842,498.761261 
	C377.720947,495.692719 385.939087,495.831055 393.978821,499.012817 
	C399.579224,501.229187 405.042419,500.943146 410.530640,498.948730 
	C420.314178,495.393372 430.024414,495.298462 439.732117,499.245087 
	C445.438507,501.565002 451.143311,500.702850 456.859802,499.112640 
	C464.280182,497.048492 471.831299,495.324341 479.430542,497.776855 
	C484.576599,499.437592 485.048401,496.944031 484.975006,492.918518 
	C484.783630,482.423798 484.978577,471.917816 484.581146,461.432953 
	C484.402527,456.721558 486.082306,455.339172 490.569153,455.575012 
	C496.718109,455.898285 502.896606,455.779205 509.059540,455.675964 
	C513.428528,455.602783 515.503113,457.365967 515.379822,461.912720 
	C515.086426,472.729462 515.883240,483.579987 514.513794,494.360352 
	C514.073608,497.825806 515.564514,498.741699 518.715210,498.692505 
	C525.877991,498.580597 533.043945,498.677307 540.208618,498.684174 
	C543.585693,498.687408 546.995117,499.185089 547.155273,503.346252 
	C547.331665,507.933105 543.863953,508.363647 540.211609,508.353149 
	C522.383179,508.301910 504.553680,508.236420 486.726715,508.404663 
	C482.124176,508.448120 478.011597,506.498505 473.491028,506.154449 
	C465.786072,505.568115 458.760376,508.541718 451.378754,509.554901 
	C446.244873,510.259583 441.374725,509.826691 436.728363,507.881592 
	C429.280609,504.763733 421.887482,504.619385 414.355896,507.317139 
	C406.394745,510.168762 398.461273,510.327179 390.450653,507.367615 
	C384.094849,505.019440 377.661743,505.593964 371.386200,507.740021 
	C363.667450,510.379639 356.036255,510.388245 348.469116,507.384735 
	C341.262207,504.524200 334.201263,504.838470 327.103394,507.770172 
	C321.341949,510.149902 315.160980,510.562286 309.540497,508.291504 
	C300.340820,504.574524 291.416931,504.962555 282.248871,507.790070 
	C275.210083,509.960938 268.222504,509.990051 261.219177,507.315674 
	C256.667267,505.577423 251.963821,504.944946 247.059265,506.287567 
	C234.302856,509.779480 221.235168,507.860443 208.301147,508.257202 
	C204.306763,508.379730 200.295609,508.412445 196.309006,508.187286 
	C193.124893,508.007416 190.848129,506.222412 190.841721,502.854126 
	C190.834976,499.302765 193.516022,498.679474 196.426514,498.671997 
	C200.092148,498.662567 203.761017,498.552948 207.422424,498.672333 
	C210.369156,498.768402 211.909378,497.681519 211.507553,494.599976 
	C210.382751,485.974213 210.745026,477.301514 210.661774,468.643860 
	C210.641129,466.497040 210.423325,464.798767 207.788345,464.182556 
	C205.319687,463.605225 204.452591,461.582794 204.800018,459.140076 
	C205.180420,456.465698 207.022766,455.662262 209.461685,455.672821 
	C215.626480,455.699554 221.791336,455.716980 227.956177,455.715820 
	C231.680923,455.715149 233.357666,457.513672 233.370346,461.267883 
	C233.391449,467.520355 232.775894,473.849884 234.983688,480.479431 
	C256.885345,470.404114 279.281189,462.710205 303.378540,459.087158 
z"/>
<path fill="#000000" opacity="1.000000" stroke="none" 
	d="
M601.104309,697.445923 
	C602.261536,694.905212 604.324219,695.791870 605.996033,695.771118 
	C614.160217,695.669983 622.332336,695.909363 630.489075,695.643066 
	C634.212341,695.521484 636.239868,696.991028 637.955200,700.109558 
	C645.340576,713.536377 652.905212,726.864502 660.410156,740.225464 
	C661.532166,742.222900 662.683472,744.203857 664.151611,746.769897 
	C668.361206,741.792053 670.694031,736.487732 673.539856,731.541931 
	C679.603821,721.003418 685.594299,710.419067 691.379089,699.725952 
	C693.046570,696.643616 695.101807,695.581238 698.520935,695.654297 
	C707.815186,695.853027 717.116516,695.722534 726.276245,695.722534 
	C727.132263,698.382080 725.476501,699.687561 724.596069,701.163879 
	C710.520813,724.766357 696.421570,748.354736 682.223694,771.883484 
	C680.259155,775.139038 679.258484,778.396484 679.292908,782.229797 
	C679.427856,797.226318 679.247192,812.225769 679.410217,827.221741 
	C679.452087,831.072937 678.309387,832.577881 674.294861,832.416687 
	C667.473694,832.142761 660.626587,832.162842 653.803589,832.415710 
	C649.799744,832.564148 648.654541,831.039429 648.700562,827.176086 
	C648.881104,812.013794 648.744812,796.848022 648.831055,781.684082 
	C648.847717,778.745667 648.167297,776.210632 646.638855,773.675110 
	C631.421814,748.431519 616.291504,723.135620 601.104309,697.445923 
z"/>
<path fill="#000000" opacity="1.000000" stroke="none" 
	d="
M524.669189,767.999878 
	C524.665710,754.504517 524.547974,741.507629 524.729431,728.514832 
	C524.783386,724.653564 523.642212,723.186584 519.624512,723.302185 
	C510.968262,723.551147 502.297424,723.257446 493.637207,723.425537 
	C490.096741,723.494263 488.445404,722.511414 488.599976,718.652039 
	C488.846466,712.497192 488.778625,706.323486 488.641724,700.162231 
	C488.571655,697.007812 489.680084,695.674255 492.956665,695.681641 
	C524.611816,695.752930 556.267212,695.757874 587.922424,695.696655 
	C591.070007,695.690613 592.454529,696.713684 592.371033,700.008362 
	C592.210632,706.335388 592.221741,712.671143 592.350952,718.999390 
	C592.416443,722.206055 591.160828,723.450378 587.945190,723.405212 
	C578.950195,723.278687 569.946960,723.529358 560.957886,723.263733 
	C556.521484,723.132629 555.256042,724.794861 555.274536,729.090088 
	C555.412537,761.244690 555.351685,793.400146 555.343811,825.555298 
	C555.342163,832.356995 555.324341,832.361084 548.485413,832.370728 
	C542.320984,832.379395 536.147705,832.178284 529.995117,832.450012 
	C525.821899,832.634399 524.560364,831.064575 524.594788,826.978577 
	C524.759277,807.486877 524.669067,787.993042 524.669189,767.999878 
z"/>
<path fill="#000000" opacity="1.000000" stroke="none" 
	d="
M228.590530,421.628357 
	C252.742722,389.834167 283.629272,369.202759 322.874969,362.244415 
	C347.349243,357.905060 371.242981,361.164429 394.427216,369.879791 
	C428.323730,382.622101 456.342346,404.010590 481.655212,429.351318 
	C482.222229,429.918945 482.604614,430.670990 483.683044,432.204041 
	C477.847809,432.309479 472.999756,433.523438 468.481293,429.091492 
	C457.640747,418.458588 445.683746,409.127289 433.218018,400.461731 
	C431.183807,399.047668 429.017517,397.823517 426.059174,395.979980 
	C424.592163,408.307526 425.837677,420.034668 425.202454,431.647247 
	C417.877686,433.633423 416.810455,432.889984 416.794617,425.818146 
	C416.771118,415.322174 416.683655,404.825378 416.794830,394.330750 
	C416.827026,391.293091 415.858673,389.395416 413.025055,388.066315 
	C406.148407,384.840851 399.516937,381.056458 392.208038,378.981812 
	C390.873627,381.076752 391.323181,382.951569 391.317627,384.725677 
	C391.273163,398.886810 391.237518,413.048462 391.325500,427.209137 
	C391.345947,430.505646 390.838379,432.531555 386.752228,432.476837 
	C382.766205,432.423462 382.628052,430.228851 382.636322,427.306671 
	C382.680237,411.812714 382.523529,396.316742 382.737762,380.825653 
	C382.794617,376.713531 381.317780,374.607971 377.428558,373.826324 
	C372.383820,372.812469 367.373230,371.626038 362.322418,370.645416 
	C357.487183,369.706635 356.359253,370.649261 356.347534,375.643005 
	C356.308411,392.303223 356.328644,408.963562 356.326202,425.623871 
	C356.325928,427.604187 356.326172,429.584534 356.326172,431.447083 
	C348.721283,433.634644 347.623779,432.888641 347.618225,425.763580 
	C347.605286,409.103302 347.485535,392.441162 347.713562,375.783936 
	C347.779236,370.988495 346.711578,368.544952 341.357758,369.308655 
	C336.432526,370.011169 331.435150,370.194794 326.477478,370.687225 
	C322.769989,371.055420 321.183289,372.852631 321.237396,376.907959 
	C321.459595,393.565277 321.357697,410.227325 321.315643,426.887451 
	C321.308960,429.530548 322.294556,432.637756 317.462982,432.610992 
	C312.778931,432.584991 312.587555,430.141205 312.613464,426.581909 
	C312.726257,411.088654 312.683777,395.594025 312.634491,380.100098 
	C312.628906,378.347443 313.215332,376.421417 311.386108,374.431183 
	C303.301575,376.135742 295.488617,379.165771 288.086914,383.322266 
	C285.916382,384.541168 286.358429,386.746948 286.354858,388.698730 
	C286.331482,401.527100 286.299072,414.355896 286.381134,427.183807 
	C286.401398,430.353088 286.180573,432.547638 281.973541,432.558990 
	C277.689636,432.570557 277.598846,430.256531 277.618958,427.140900 
	C277.687775,416.478882 277.657837,405.815918 277.599457,395.153687 
	C277.590790,393.574005 278.110687,391.573730 276.162231,390.739166 
	C274.534119,390.041779 273.349213,391.488556 272.168945,392.295898 
	C258.157806,401.879913 245.788559,413.263855 236.186264,427.282776 
	C232.548965,432.593079 228.383118,433.143890 222.711899,431.814850 
	C223.519180,427.731781 226.336807,425.039246 228.590530,421.628357 
z"/>
<path fill="#000000" opacity="1.000000" stroke="none" 
	d="
M438.651062,757.999878 
	C438.652466,738.855591 438.779877,720.209900 438.565857,701.568115 
	C438.513519,697.011780 439.884125,695.378723 444.502075,695.623657 
	C450.976257,695.967041 457.495605,695.974365 463.969635,695.632751 
	C468.763489,695.379761 469.343475,697.722778 469.332733,701.674316 
	C469.229736,739.461914 469.262909,777.250000 469.255768,815.037903 
	C469.254913,819.532349 469.191833,824.027710 469.262299,828.520996 
	C469.305237,831.257874 468.116577,832.406494 465.371552,832.380432 
	C458.047791,832.310913 450.714935,832.170105 443.401245,832.455383 
	C439.035675,832.625671 438.604584,830.381775 438.616547,826.917725 
	C438.695374,804.112000 438.653687,781.305908 438.651062,757.999878 
z"/>
<path fill="#000000" opacity="1.000000" stroke="none" 
	d="
M691.987915,347.345886 
	C673.494629,347.344696 655.496582,347.484161 637.503662,347.245392 
	C632.673279,347.181305 630.899475,348.732544 631.277588,353.540710 
	C631.616150,357.846558 631.283569,362.201233 631.384277,366.531189 
	C631.448181,369.278564 630.313049,370.421173 627.543823,370.413696 
	C624.845154,370.406433 623.003601,369.863983 623.015137,366.633362 
	C623.065308,352.637421 623.008545,338.641022 623.083252,324.645294 
	C623.097595,321.954407 623.967651,319.676575 627.340942,319.629639 
	C630.378845,319.587402 630.653198,317.480988 630.642456,315.124878 
	C630.618164,309.792847 630.698792,304.459930 630.633667,299.128662 
	C630.600159,296.384399 631.038025,294.182404 634.297058,293.595367 
	C636.960571,293.115631 637.462341,290.947998 637.623779,288.676819 
	C638.634949,274.450653 644.189819,262.621826 654.665833,252.628250 
	C660.605103,246.962540 665.629150,240.076431 664.807983,230.744797 
	C664.506775,227.322281 665.995300,224.338745 670.124023,224.340530 
	C674.326721,224.342346 675.376282,227.314865 675.288635,230.814835 
	C675.038269,240.812012 680.756348,248.154160 686.916626,254.757370 
	C694.925110,263.341492 700.477539,272.751801 701.820862,284.501740 
	C702.031433,286.343719 702.209167,288.128937 701.698425,289.941315 
	C701.087097,292.110687 701.651489,293.483032 704.165466,293.726746 
	C707.427795,294.043030 708.059021,296.489136 708.104492,299.140167 
	C708.195862,304.470886 708.187195,309.803833 708.171265,315.135712 
	C708.164429,317.419830 708.225647,319.404083 711.249146,319.887787 
	C713.552368,320.256287 714.345459,322.130341 714.342407,324.377319 
	C714.323303,338.374207 714.277222,352.371399 714.358459,366.367798 
	C714.376282,369.428528 713.097534,370.421295 710.166992,370.415710 
	C707.133911,370.409912 705.954651,369.052094 705.976440,366.196014 
	C706.010803,361.697388 705.806519,357.188599 706.045532,352.702332 
	C706.267822,348.528656 704.578674,346.939056 700.479309,347.300964 
	C697.833923,347.534515 695.151123,347.344696 691.987915,347.345886 
M632.223328,328.751770 
	C629.738708,337.203339 630.755554,338.733337 638.929199,338.738678 
	C659.395264,338.752075 679.861450,338.770782 700.327393,338.726715 
	C702.667603,338.721680 705.956299,339.469727 705.762268,335.551331 
	C705.613098,332.539551 708.086670,328.178314 702.349731,327.263763 
	C699.776489,326.853546 699.664795,324.672943 699.655090,322.601471 
	C699.630127,317.277100 699.511780,311.950714 699.621765,306.629089 
	C699.688904,303.382233 698.282532,302.214081 695.127014,302.257660 
	C687.141785,302.368011 679.153992,302.286499 671.167236,302.291779 
	C662.348572,302.297638 653.529907,302.341339 644.711365,302.315155 
	C640.365540,302.302246 637.754578,303.609100 638.263855,308.734192 
	C638.673218,312.853577 638.117432,317.062714 638.420227,321.200531 
	C638.731323,325.452972 637.305603,327.934540 632.223328,328.751770 
M682.743042,262.752075 
	C679.833923,259.383667 675.932007,257.027557 673.820679,252.779404 
	C671.705566,248.523621 669.061523,248.532730 666.449036,252.585709 
	C664.342285,255.854156 661.675354,258.502869 658.994202,261.246948 
	C651.843018,268.566010 646.909912,277.026215 646.073792,287.545410 
	C645.728516,291.889404 646.740540,293.906250 651.696960,293.772583 
	C663.678833,293.449493 675.679688,293.483246 687.663879,293.760681 
	C692.442322,293.871277 693.830383,291.868683 693.667664,287.547333 
	C693.311218,278.082336 689.102234,270.338593 682.743042,262.752075 
z"/>
<path fill="#000000" opacity="1.000000" stroke="none" 
	d="
M495.000305,438.627228 
	C510.161377,438.639923 524.822449,438.640228 539.483521,438.665985 
	C540.976196,438.668610 542.534668,438.580872 543.946289,438.963837 
	C546.255615,439.590393 547.552734,441.218536 547.502747,443.754242 
	C547.448730,446.491638 545.790588,447.558655 543.353455,447.778107 
	C542.028870,447.897369 540.691895,447.919189 539.360535,447.919464 
	C425.070801,447.943817 310.781067,447.961853 196.491318,447.978668 
	C195.658447,447.978790 194.823975,447.985474 193.992966,447.939880 
	C190.577866,447.752594 187.414291,446.969879 187.522903,442.713257 
	C187.634674,438.332794 191.083054,438.642670 194.117767,438.641693 
	C242.599106,438.626129 291.080444,438.608643 339.561798,438.606171 
	C391.207947,438.603516 442.854126,438.616119 495.000305,438.627228 
z"/>
<path fill="#000000" opacity="1.000000" stroke="none" 
	d="
M213.407959,430.922821 
	C209.913315,433.252106 206.599518,432.507599 202.641617,431.651123 
	C205.486130,424.787445 209.702682,419.265778 213.815460,413.720306 
	C234.122192,386.339691 259.432434,365.436096 291.711243,353.478027 
	C328.345367,339.906494 364.878326,340.980957 401.588867,353.327332 
	C431.197083,363.285034 456.301239,380.440125 479.688568,400.592438 
	C490.180664,409.633209 499.745026,419.616852 509.620667,429.286896 
	C510.294678,429.946899 511.262207,430.502411 510.993896,432.081360 
	C505.105377,432.714905 499.994049,432.789032 494.985992,427.661469 
	C471.825592,403.948395 446.507568,382.988495 416.134308,368.845612 
	C394.901276,358.958740 372.556122,352.911224 349.245483,352.582947 
	C310.950500,352.043671 277.274628,365.204193 248.038467,389.939850 
	C234.274368,401.585205 223.456177,415.644531 213.407959,430.922821 
z"/>
<path fill="#000000" opacity="1.000000" stroke="none" 
	d="
M605.579224,341.294098 
	C613.775574,349.177277 611.792297,358.984650 611.492065,368.314056 
	C611.401306,371.134796 608.473145,370.197723 606.615417,370.295074 
	C604.488525,370.406525 603.673767,369.156097 603.671753,367.170074 
	C603.668213,363.673004 603.699219,360.174255 603.604553,356.679199 
	C603.385071,348.579529 599.034058,344.753876 591.092346,345.595703 
	C577.797791,347.004883 577.626038,347.003387 577.742188,333.665985 
	C577.780579,329.252167 576.344849,327.840790 572.010620,327.945709 
	C562.690735,328.171204 553.354797,328.147614 544.036621,327.861969 
	C539.380981,327.719238 537.756653,329.492035 538.170166,333.993835 
	C538.458313,337.131561 538.206665,340.317291 538.228943,343.481354 
	C538.257568,347.557831 536.533203,349.533264 532.182678,349.443420 
	C521.926514,349.231659 523.120972,348.565552 523.046082,359.008179 
	C523.026978,361.668640 523.109314,364.355743 522.763062,366.980225 
	C522.447327,369.372681 520.879700,370.949585 518.279419,370.678162 
	C515.999573,370.440155 514.709290,369.004944 514.705811,366.631744 
	C514.695435,359.637604 514.665100,352.643005 514.731445,345.649475 
	C514.762939,342.336578 516.959595,341.708221 519.804749,341.594818 
	C529.654297,341.202271 529.645325,341.143372 529.655396,331.165985 
	C529.667908,318.704010 528.619324,319.641937 541.309082,319.639191 
	C554.132690,319.636414 566.957764,319.755585 579.778992,319.583649 
	C584.092834,319.525848 585.739563,321.323700 585.916870,325.450714 
	C586.078979,329.223633 584.417725,333.770508 587.013428,336.577423 
	C589.521423,339.289429 594.010742,337.110840 597.574768,337.726685 
	C600.419861,338.218262 602.971436,339.358490 605.579224,341.294098 
z"/>
</svg>